<svg width="20" height="20" viewBox="0 0 20 20" fill="none" xmlns="http://www.w3.org/2000/svg">
<path d="M16.6673 9.16667C16.6673 7.39856 15.9649 5.70286 14.7147 4.45262C13.4645 3.20238 11.7688 2.5 10.0007 2.5C8.23254 2.5 6.53685 3.20238 5.28661 4.45262C4.03636 5.70286 3.33398 7.39856 3.33398 9.16667" stroke="#991F5D" stroke-width="1.5" stroke-linecap="round" stroke-linejoin="round"/>
<path d="M16.667 15V15.4167C16.667 15.8587 16.4914 16.2827 16.1788 16.5952C15.8663 16.9078 15.4424 17.0834 15.0003 17.0834H12.0837M1.66699 12.865V11.3017C1.66705 10.93 1.79133 10.5691 2.02008 10.2761C2.24883 9.98323 2.56893 9.77517 2.92949 9.68504L4.37949 9.32171C4.45317 9.30336 4.53006 9.30203 4.60433 9.31782C4.6786 9.33362 4.7483 9.36612 4.80814 9.41286C4.86797 9.45961 4.91638 9.51937 4.94968 9.58761C4.98298 9.65585 5.0003 9.73077 5.00033 9.80671V14.3592C5.00046 14.4353 4.98322 14.5104 4.94993 14.5788C4.91663 14.6473 4.86816 14.7072 4.80821 14.754C4.74826 14.8009 4.6784 14.8334 4.60396 14.8492C4.52952 14.865 4.45246 14.8636 4.37866 14.845L2.92866 14.4825C2.56825 14.3923 2.24834 14.1841 2.01975 13.8912C1.79116 13.5983 1.667 13.2374 1.66699 12.8659V12.865ZM18.3337 12.865V11.3017C18.3336 10.93 18.2093 10.5691 17.9806 10.2761C17.7518 9.98323 17.4317 9.77517 17.0712 9.68504L15.6212 9.32171C15.5475 9.30336 15.4706 9.30203 15.3963 9.31782C15.322 9.33362 15.2524 9.36612 15.1925 9.41286C15.1327 9.45961 15.0843 9.51937 15.051 9.58761C15.0177 9.65585 15.0004 9.73077 15.0003 9.80671V14.3592C15.0002 14.4352 15.0175 14.5102 15.0507 14.5786C15.0839 14.6469 15.1323 14.7068 15.1922 14.7536C15.252 14.8005 15.3218 14.833 15.3961 14.8489C15.4704 14.8647 15.5474 14.8634 15.6212 14.845L17.0712 14.4825C17.4317 14.3924 17.7518 14.1844 17.9806 13.8914C18.2093 13.5985 18.3336 13.2375 18.3337 12.8659V12.865Z" stroke="#991F5D" stroke-width="1.5"/>
<path d="M11.25 18.3333H8.75C8.41848 18.3333 8.10054 18.2016 7.86612 17.9671C7.6317 17.7327 7.5 17.4148 7.5 17.0833C7.5 16.7517 7.6317 16.4338 7.86612 16.1994C8.10054 15.9649 8.41848 15.8333 8.75 15.8333H11.25C11.5815 15.8333 11.8995 15.9649 12.1339 16.1994C12.3683 16.4338 12.5 16.7517 12.5 17.0833C12.5 17.4148 12.3683 17.7327 12.1339 17.9671C11.8995 18.2016 11.5815 18.3333 11.25 18.3333Z" stroke="#991F5D" stroke-width="1.5"/>
</svg>
