<svg width="72" height="74" viewBox="0 0 72 74" fill="none" xmlns="http://www.w3.org/2000/svg">
<path d="M59 22C64.5228 22 69 17.5228 69 12C69 6.47715 64.5228 2 59 2C53.4772 2 49 6.47715 49 12C49 17.5228 53.4772 22 59 22Z" stroke="#898989" stroke-width="2" stroke-linecap="round" stroke-linejoin="round"/>
<path d="M56.0898 9.00001C56.3249 8.33167 56.789 7.76811 57.3998 7.40914C58.0106 7.05016 58.7287 6.91894 59.427 7.03872C60.1253 7.15849 60.7587 7.52153 61.2149 8.06353C61.6712 8.60554 61.9209 9.29153 61.9198 10C61.9198 12 58.9198 13 58.9198 13" stroke="#898989" stroke-width="2" stroke-linecap="round" stroke-linejoin="round"/>
<path d="M59 17H59.01" stroke="#898989" stroke-width="2" stroke-linecap="round" stroke-linejoin="round"/>
<path d="M9.20425 9.00005L15.2043 15M15.2043 15L6.20425 24L16.7043 34.5L25.7043 25.5M15.2043 15L25.7043 25.5M38.0343 37.83C36.4852 39.3584 35.2538 41.1782 34.411 43.1844C33.5681 45.1907 33.1305 47.3438 33.1232 49.5199C33.1159 51.696 33.5391 53.8521 34.3685 55.8639C35.1979 57.8758 36.4171 59.7037 37.9558 61.2425C39.4946 62.7812 41.3225 64.0004 43.3343 64.8298C45.3462 65.6592 47.5023 66.0824 49.6784 66.0751C51.8545 66.0678 54.0076 65.6302 56.0139 64.7873C58.0201 63.9445 59.8399 62.7131 61.3683 61.164C64.3739 58.0521 66.037 53.8842 65.9994 49.5579C65.9618 45.2317 64.2265 41.0933 61.1673 38.034C58.108 34.9748 53.9696 33.2395 49.6434 33.2019C45.3171 33.1643 41.1492 34.8274 38.0373 37.833L38.0343 37.83ZM38.0343 37.83L25.7043 25.5" stroke="#898989" stroke-width="3" stroke-linecap="round" stroke-linejoin="round"/>
</svg>
