<svg width="20" height="20" viewBox="0 0 20 20" fill="none" xmlns="http://www.w3.org/2000/svg">
<path d="M16.6666 9.16667C16.6666 7.39856 15.9643 5.70286 14.714 4.45262C13.4638 3.20238 11.7681 2.5 9.99998 2.5C8.23187 2.5 6.53618 3.20238 5.28593 4.45262C4.03569 5.70286 3.33331 7.39856 3.33331 9.16667" stroke="#6C6C6C" stroke-width="1.5" stroke-linecap="round" stroke-linejoin="round"/>
<path d="M16.6667 15V15.4167C16.6667 15.8587 16.4911 16.2826 16.1785 16.5952C15.8659 16.9077 15.442 17.0833 15 17.0833H12.0833M1.66666 12.865V11.3017C1.66671 10.93 1.79099 10.569 2.01974 10.2761C2.2485 9.98319 2.56859 9.77514 2.92916 9.68501L4.37916 9.32167C4.45284 9.30332 4.52973 9.302 4.604 9.31779C4.67827 9.33359 4.74797 9.36609 4.8078 9.41283C4.86764 9.45958 4.91604 9.51934 4.94934 9.58758C4.98264 9.65582 4.99996 9.73074 4.99999 9.80667V14.3592C5.00012 14.4353 4.98288 14.5104 4.94959 14.5788C4.9163 14.6472 4.86783 14.7071 4.80787 14.754C4.74792 14.8009 4.67806 14.8334 4.60362 14.8492C4.52918 14.865 4.45213 14.8635 4.37832 14.845L2.92832 14.4825C2.56791 14.3922 2.248 14.1841 2.01942 13.8912C1.79083 13.5983 1.66667 13.2374 1.66666 12.8658V12.865ZM18.3333 12.865V11.3017C18.3333 10.93 18.209 10.569 17.9802 10.2761C17.7515 9.98319 17.4314 9.77514 17.0708 9.68501L15.6208 9.32167C15.5471 9.30332 15.4703 9.302 15.396 9.31779C15.3217 9.33359 15.252 9.36609 15.1922 9.41283C15.1323 9.45958 15.0839 9.51934 15.0506 9.58758C15.0173 9.65582 15 9.73074 15 9.80667V14.3592C14.9999 14.4352 15.0171 14.5102 15.0504 14.5785C15.0836 14.6469 15.132 14.7068 15.1919 14.7536C15.2517 14.8004 15.3214 14.833 15.3958 14.8488C15.4701 14.8647 15.5471 14.8634 15.6208 14.845L17.0708 14.4825C17.4314 14.3924 17.7515 14.1843 17.9802 13.8914C18.209 13.5985 18.3333 13.2375 18.3333 12.8658V12.865Z" stroke="#6C6C6C" stroke-width="1.5"/>
<path d="M11.25 18.3333H8.75C8.41848 18.3333 8.10054 18.2016 7.86612 17.9672C7.6317 17.7328 7.5 17.4148 7.5 17.0833C7.5 16.7518 7.6317 16.4339 7.86612 16.1994C8.10054 15.965 8.41848 15.8333 8.75 15.8333H11.25C11.5815 15.8333 11.8995 15.965 12.1339 16.1994C12.3683 16.4339 12.5 16.7518 12.5 17.0833C12.5 17.4148 12.3683 17.7328 12.1339 17.9672C11.8995 18.2016 11.5815 18.3333 11.25 18.3333Z" stroke="#6C6C6C" stroke-width="1.5"/>
</svg>
