<svg width="36" height="36" viewBox="0 0 36 36" fill="none" xmlns="http://www.w3.org/2000/svg">
<path d="M10.5 33H6C5.20435 33 4.44129 32.6839 3.87868 32.1213C3.31607 31.5587 3 30.7956 3 30V19.5C3 18.7044 3.31607 17.9413 3.87868 17.3787C4.44129 16.8161 5.20435 16.5 6 16.5H10.5M21 13.5V7.5C21 6.30653 20.5259 5.16193 19.682 4.31802C18.8381 3.47411 17.6935 3 16.5 3L10.5 16.5V33H27.42C28.1435 33.0082 28.8456 32.7546 29.3969 32.286C29.9482 31.8174 30.3115 31.1654 30.42 30.45L32.49 16.95C32.5553 16.52 32.5263 16.081 32.405 15.6634C32.2838 15.2457 32.0732 14.8594 31.7878 14.5313C31.5024 14.2031 31.1491 13.9409 30.7524 13.7628C30.3556 13.5848 29.9249 13.4951 29.49 13.5H21Z" stroke="#6C6C6C" stroke-width="1.5" stroke-linecap="round" stroke-linejoin="round"/>
</svg>
